<svg width="160" height="160" viewBox="0 0 160 160" fill="none" xmlns="http://www.w3.org/2000/svg">
<path d="M0 20C0 8.95431 8.95431 0 20 0H140C151.046 0 160 8.95431 160 20V140C160 151.046 151.046 160 140 160H20C8.95431 160 0 151.046 0 140V20Z" fill="url(#paint0_linear_7289:1334)"/>
<path d="M129.859 62.5559C132.342 58.797 133.667 54.3779 133.667 49.8571C133.669 46.8549 133.086 43.8816 131.951 41.1075C130.817 38.3333 129.153 35.8127 127.054 33.6897C124.956 31.5668 122.465 29.8833 119.723 28.7354C116.98 27.5875 114.042 26.9978 111.074 27C106.606 27 102.238 28.3406 98.5224 30.8521C94.8071 33.3637 91.9114 36.9335 90.2014 41.1101C89.0605 43.8967 88.4817 46.8699 88.4816 49.8572C88.4816 49.8587 88.4816 49.8603 88.4816 49.8618V103.19H103.543V71.4071C104.558 71.7702 105.602 72.0608 106.667 72.2751C111.049 73.157 115.592 72.7044 119.72 70.9744C123.848 69.2444 127.377 66.3147 129.859 62.5559Z" fill="white"/>
<path d="M72.185 117.655V132.893H49.5925C46.625 132.895 43.6862 132.305 40.9441 131.158C38.2021 130.01 35.7106 128.326 33.6123 126.203C31.5139 124.08 29.8499 121.56 28.7153 118.785C27.5807 116.011 26.9978 113.038 27 110.036V102.417H42.0617V110.087C42.0617 112.094 42.8498 114.019 44.2527 115.438C45.6556 116.857 47.5583 117.655 49.5423 117.655H72.185Z" fill="white"/>
<path d="M73.4204 27V42.2381H50.7777C48.7937 42.2381 46.891 43.0355 45.4881 44.4548C44.0852 45.8741 43.2971 47.7991 43.2971 49.8064V65.146C43.2971 67.1533 44.0853 69.0784 45.4882 70.4977C46.8911 71.917 48.7938 72.7144 50.7778 72.7144H73.4205V87.9525H50.828C47.8605 87.9547 44.9217 87.365 42.1796 86.2171C39.4376 85.0693 36.9462 83.3857 34.8478 81.2628C32.7495 79.1398 31.0854 76.6192 29.9508 73.8451C28.8226 71.0865 28.2399 68.1311 28.2355 65.146L28.2354 49.908C28.2266 46.9014 28.8046 43.9227 29.9363 41.1427C31.0679 38.3626 32.7309 35.836 34.8299 33.7077C36.9289 31.5794 39.4226 29.8913 42.1679 28.7402C44.9133 27.5892 47.8562 26.9978 50.8279 27H73.4204Z" fill="white"/>
<path d="M118.605 103.19V110.86C118.605 112.868 117.817 114.793 116.414 116.212C115.011 117.631 113.108 118.429 111.124 118.429H88.4816V133.667H111.074C114.042 133.669 116.98 133.079 119.723 131.931C122.465 130.783 124.956 129.1 127.054 126.977C129.153 124.854 130.817 122.333 131.951 119.559C133.086 116.785 133.669 113.812 133.667 110.81V103.19H118.605Z" fill="white"/>
<defs>
<linearGradient id="paint0_linear_7289:1334" x1="80" y1="-3.15584e-05" x2="5.18889" y2="0.79476" gradientUnits="userSpaceOnUse">
<stop stop-color="#57AEFE"/>
<stop offset="1" stop-color="#6B71FF"/>
</linearGradient>
</defs>
</svg>
