<svg width="217" height="68" viewBox="0 0 217 68" fill="none" xmlns="http://www.w3.org/2000/svg">
<g filter="url(#filter0_d_7456:1614)">
<rect x="4" y="4" width="60" height="60" rx="8" fill="white"/>
<path d="M48.8577 28.6668C49.6025 27.5391 50 26.2134 50 24.8571C50.0007 23.9565 49.8258 23.0645 49.4854 22.2322C49.145 21.4 48.6458 20.6438 48.0163 20.0069C47.3868 19.37 46.6394 18.865 45.8168 18.5206C44.9941 18.1762 44.1125 17.9993 43.2222 18C41.8817 18 40.5713 18.4022 39.4567 19.1556C38.3421 19.9091 37.4734 20.98 36.9604 22.233C36.6182 23.069 36.4445 23.961 36.4445 24.8571C36.4445 24.8576 36.4445 24.8581 36.4445 24.8585V40.8571H40.963V31.3221C41.2675 31.4311 41.5806 31.5183 41.9 31.5825C43.2147 31.8471 44.5775 31.7113 45.816 31.1923C47.0545 30.6733 48.113 29.7944 48.8577 28.6668Z" fill="#6B71FF"/>
<path d="M31.5555 45.1964V49.7679H24.7778C23.8875 49.7685 23.0059 49.5916 22.1832 49.2473C21.3606 48.9029 20.6132 48.3978 19.9837 47.7609C19.3542 47.1241 18.855 46.3679 18.5146 45.5356C18.1742 44.7034 17.9993 43.8114 18 42.9107V40.625H22.5185V42.926C22.5185 43.5281 22.7549 44.1056 23.1758 44.5314C23.5967 44.9572 24.1675 45.1964 24.7627 45.1964H31.5555Z" fill="#6B71FF"/>
<path d="M31.9261 18V22.5714H25.1333C24.5381 22.5714 23.9673 22.8106 23.5464 23.2364C23.1256 23.6622 22.8891 24.2397 22.8891 24.8419V29.4438C22.8891 30.046 23.1256 30.6235 23.5465 31.0493C23.9673 31.4751 24.5382 31.7143 25.1333 31.7143H31.9262V36.2858H25.1484C24.2582 36.2864 23.3765 36.1095 22.5539 35.7651C21.7313 35.4208 20.9838 34.9157 20.3543 34.2788C19.7248 33.642 19.2256 32.8858 18.8852 32.0535C18.5468 31.226 18.372 30.3393 18.3707 29.4438L18.3706 24.8724C18.368 23.9704 18.5414 23.0768 18.8809 22.2428C19.2204 21.4088 19.7193 20.6508 20.349 20.0123C20.9787 19.3738 21.7268 18.8674 22.5504 18.5221C23.374 18.1767 24.2569 17.9993 25.1484 18H31.9261Z" fill="#6B71FF"/>
<path d="M45.4815 40.8571V43.1581C45.4815 43.7603 45.2451 44.3378 44.8242 44.7636C44.4033 45.1894 43.8325 45.4286 43.2373 45.4286H36.4445V50H43.2222C44.1125 50.0007 44.9941 49.8238 45.8168 49.4794C46.6394 49.135 47.3868 48.63 48.0163 47.9931C48.6458 47.3562 49.145 46.6 49.4854 45.7678C49.8258 44.9355 50.0007 44.0435 50 43.1429V40.8571H45.4815Z" fill="#6B71FF"/>
</g>
<path fill-rule="evenodd" clip-rule="evenodd" d="M169.064 22.6805V40.3955H165.492V38.8996C165.006 39.4592 164.401 39.9019 163.721 40.195C163.042 40.488 162.305 40.6238 161.566 40.5923C159.806 40.5923 158.119 39.8914 156.874 38.6437C155.63 37.3961 154.931 35.7039 154.931 33.9394C154.931 32.1749 155.63 30.4827 156.874 29.235C158.119 27.9874 159.806 27.2864 161.566 27.2864C162.295 27.243 163.026 27.3617 163.704 27.6339C164.383 27.9061 164.993 28.3251 165.492 28.8611V22.6805H169.064ZM165.394 34.0378C165.359 33.395 165.138 32.7763 164.758 32.2575C164.378 31.7388 163.855 31.3426 163.254 31.1175C162.652 30.8924 161.998 30.8483 161.372 30.9905C160.746 31.1326 160.175 31.455 159.729 31.918C159.283 32.3809 158.981 32.9644 158.861 33.5967C158.741 34.2291 158.807 34.8829 159.052 35.4779C159.298 36.0729 159.71 36.5832 160.241 36.9462C160.771 37.3093 161.395 37.5093 162.037 37.5217C162.493 37.5236 162.945 37.4299 163.363 37.2465C163.782 37.0632 164.157 36.7943 164.466 36.457C164.774 36.1198 165.009 35.7217 165.155 35.2882C165.302 34.8546 165.356 34.3952 165.315 33.9394L165.394 34.0378ZM95.2956 35.8088L94 38.7416L94.0589 38.7613C96.0869 40.091 98.4675 40.777 100.89 40.7296C105.66 40.7296 107.996 38.3283 107.996 35.5135C107.996 31.907 104.633 31.1402 101.844 30.5044C99.8683 30.0541 98.1812 29.6694 98.1812 28.3882C98.1812 27.2859 99.0842 26.4199 101.381 26.4199C103.009 26.4527 104.6 26.9143 105.994 27.7583L107.191 24.8059C105.403 23.7741 103.365 23.2565 101.302 23.3099C96.5323 23.3099 94.2356 25.6916 94.2356 28.5457C94.2356 32.1936 97.5904 32.9687 100.377 33.6127C102.357 34.0701 104.051 34.4613 104.051 35.7694C104.051 36.793 103.128 37.5606 100.831 37.5606C98.8521 37.5497 96.9224 36.939 95.2956 35.8088ZM109.928 31.263C109.561 32.104 109.371 33.0117 109.369 33.9295L109.369 33.9227V33.9364L109.369 33.9295C109.371 34.8474 109.561 35.7551 109.928 36.596C110.296 37.44 110.834 38.1983 111.509 38.8233C112.184 39.4482 112.981 39.9263 113.849 40.2274C114.717 40.5285 115.638 40.646 116.554 40.5726C117.732 40.6717 118.912 40.413 119.942 39.8303C120.971 39.2475 121.801 38.3677 122.325 37.3052L119.42 35.7109C119.159 36.2537 118.748 36.7105 118.237 37.0278C117.726 37.3451 117.135 37.5096 116.534 37.502C115.587 37.502 114.678 37.1246 114.008 36.4528C113.338 35.781 112.962 34.8698 112.962 33.9197C112.962 32.9696 113.338 32.0584 114.008 31.3866C114.678 30.7148 115.587 30.3373 116.534 30.3373C117.134 30.3345 117.723 30.501 118.234 30.8177C118.744 31.1344 119.155 31.5887 119.42 32.1285L122.325 30.5539C121.801 29.4914 120.971 28.6115 119.942 28.0288C118.912 27.4461 117.732 27.1874 116.554 27.2864C115.638 27.2131 114.717 27.3306 113.849 27.6317C112.981 27.9328 112.184 28.4108 111.509 29.0358C110.834 29.6608 110.296 30.4191 109.928 31.263ZM135.87 33.034V40.3955H132.376V38.7815C131.947 39.4117 131.355 39.913 130.663 40.232C129.972 40.5509 129.207 40.6755 128.45 40.5923C125.447 40.5923 123.641 38.8996 123.641 36.6557C123.641 34.4118 125.25 32.719 129.176 32.719H132.141C132.141 31.105 131.179 30.1799 129.176 30.1799C127.846 30.167 126.546 30.5808 125.466 31.3609L124.131 28.7627C125.778 27.6951 127.706 27.1466 129.667 27.188C133.593 27.188 135.87 29.0186 135.87 32.9355V33.034ZM132.141 36.2227V34.9039H129.569C127.842 34.9039 127.272 35.5534 127.272 36.4195C127.272 37.2856 128.077 37.9745 129.392 37.9745C129.976 38.0112 130.557 37.8615 131.051 37.5467C131.544 37.232 131.926 36.7684 132.141 36.2227ZM152.419 40.3955V33.0143C152.516 32.2712 152.448 31.5157 152.219 30.8021C151.991 30.0885 151.608 29.4345 151.097 28.887C150.587 28.3395 149.962 27.912 149.267 27.6353C148.573 27.3586 147.826 27.2394 147.08 27.2864C146.29 27.2562 145.502 27.393 144.768 27.688C144.034 27.9831 143.37 28.4297 142.82 28.9989V27.4833H139.247V40.3955H142.997V34.0181C142.997 31.6364 144.43 30.5342 146.079 30.5342C147.727 30.5342 148.689 31.4987 148.689 33.5851V40.3955H152.419ZM180.038 35.7699C184.494 35.7699 187.301 33.4276 187.301 29.6878H187.262C187.262 25.9283 184.455 23.6057 179.999 23.6057H172.736V40.3955H176.662V35.7699H180.038ZM179.783 26.7747C182.139 26.7747 183.336 27.8376 183.336 29.6878L183.375 29.7665C183.375 31.5971 182.178 32.6796 179.822 32.6796H176.662V26.7747H179.783ZM201.081 33.034V40.3955H197.587V38.7815C197.154 39.4085 196.562 39.9075 195.871 40.2261C195.18 40.5447 194.417 40.6712 193.661 40.5923C190.638 40.5923 188.852 38.8996 188.852 36.6557C188.852 34.4118 190.442 32.719 194.368 32.719H197.371C197.371 31.105 196.429 30.1799 194.407 30.1799C193.077 30.1724 191.779 30.5857 190.697 31.3609L189.362 28.7627C191.014 27.6913 192.95 27.1426 194.917 27.188C198.843 27.188 201.12 29.0186 201.12 32.9356L201.081 33.034ZM197.371 36.3211V35.0023H194.819C193.072 35.0023 192.522 35.6518 192.522 36.5179C192.522 37.384 193.308 38.0729 194.623 38.0729C195.207 38.1127 195.789 37.9642 196.283 37.6491C196.778 37.334 197.159 36.8687 197.371 36.3211ZM211.111 41.2615L217 27.4832L213.388 27.5619L209.737 36.321L206.125 27.5619H202.199L207.774 40.5726V40.6907C207.263 41.852 206.694 42.3047 205.673 42.3047C204.891 42.29 204.14 41.997 203.553 41.478L202.199 44.1549C203.232 44.9362 204.497 45.3453 205.791 45.3162C207.008 45.3591 208.202 44.9789 209.172 44.2399C210.141 43.501 210.826 42.4488 211.111 41.2615Z" fill="url(#paint0_linear_7456:1614)"/>
<defs>
<filter id="filter0_d_7456:1614" x="0" y="0" width="68" height="68" filterUnits="userSpaceOnUse" color-interpolation-filters="sRGB">
<feFlood flood-opacity="0" result="BackgroundImageFix"/>
<feColorMatrix in="SourceAlpha" type="matrix" values="0 0 0 0 0 0 0 0 0 0 0 0 0 0 0 0 0 0 127 0" result="hardAlpha"/>
<feOffset/>
<feGaussianBlur stdDeviation="2"/>
<feComposite in2="hardAlpha" operator="out"/>
<feColorMatrix type="matrix" values="0 0 0 0 0.243137 0 0 0 0 0.266667 0 0 0 0 0.501961 0 0 0 0.25 0"/>
<feBlend mode="normal" in2="BackgroundImageFix" result="effect1_dropShadow_7456:1614"/>
<feBlend mode="normal" in="SourceGraphic" in2="effect1_dropShadow_7456:1614" result="shape"/>
</filter>
<linearGradient id="paint0_linear_7456:1614" x1="155.5" y1="22.6805" x2="98.1735" y2="25.9895" gradientUnits="userSpaceOnUse">
<stop stop-color="#57AEFE"/>
<stop offset="1" stop-color="#6B71FF"/>
</linearGradient>
</defs>
</svg>
